<mxfile host="app.diagrams.net" modified="2022-10-08T15:25:42.022Z" agent="5.0 (Windows)" etag="z9Ue3IG4ucTZqrFJYWFz" version="20.2.8" type="github">
  <diagram id="SgPVI4OfAQDJ4Op12l3S" name="PÃ¡gina-1">
    <mxGraphModel dx="982" dy="354" grid="1" gridSize="10" guides="1" tooltips="1" connect="1" arrows="1" fold="1" page="1" pageScale="1" pageWidth="827" pageHeight="1169" math="0" shadow="0">
      <root>
        <mxCell id="0" />
        <mxCell id="1" parent="0" />
        <mxCell id="Oh8Jn7zO_o9vtSne1rGO-1" value="SHA-256" style="rounded=1;whiteSpace=wrap;html=1;fontStyle=1" vertex="1" parent="1">
          <mxGeometry x="70" y="60" width="90" height="50" as="geometry" />
        </mxCell>
      </root>
    </mxGraphModel>
  </diagram>
</mxfile>
